# xmcd
#
# Track frame offsets: 
#        150
#        13705
#        26058
#        42534
#        54957
#        66391
#        76608
#        88526
#        96956
#        108699
#        120296
#        131577
#        145185
#        161134
#        171706
#        183238
#        195584
#
# Disc length: 2758 seconds
#
# Revision: 3
# Processed by: cddbd v1.5.2PL0 Copyright (c) Steve Scherf et al.
# Submitted via: ExactAudioCopyFreeDBPlugin 1.0
#
DISCID=e90ac411
DTITLE=Various Artist - Philadelphia Roots_Funk Soul and The Roots of Disco 1965-73
DYEAR=2001
DGENRE=Soul
TTITLE0=The People's Choice - I Likes To Do It
TTITLE1=Cliff Nobles and Co - The Horse
TTITLE2=The Fantastic Johnny C - Waiting For The Rain
TTITLE3=Brothers Of Hope - I'm Gonna Make You Love Me
TTITLE4=Brenda and The Tabulations - California Soul
TTITLE5=Corner Boys And Friends - Take It Easy Soul Brother
TTITLE6=The People's Choice - Let Me Do My Thing
TTITLE7=Brenda and The Tabulations - Hey Boy
TTITLE8=Bunny Sigler - Great Big Liar
TTITLE9=Alfreda Brockington - Chained And Bound
TTITLE10=Panic Buttons - O Wow
TTITLE11=John Ellison - Lost The Will To Live
TTITLE12=The Philly Sound - Waitin' For The Rain
TTITLE13=Bunny And Cindy - Sure Didn't Take Long
TTITLE14=The People's Choice - Big Ladies Man
TTITLE15=Soul Brothers Six - You Gotta Come A Little Closer
TTITLE16=Music Makers - United
EXTD=YEAR: 2001
EXTT0=
EXTT1=
EXTT2=
EXTT3=
EXTT4=
EXTT5=
EXTT6=
EXTT7=
EXTT8=
EXTT9=
EXTT10=
EXTT11=
EXTT12=
EXTT13=
EXTT14=
EXTT15=
EXTT16=
PLAYORDER=
